<mxfile host="app.diagrams.net" modified="2023-04-26T15:31:29.650Z" agent="Mozilla/5.0 (Windows NT 10.0; Win64; x64) AppleWebKit/537.36 (KHTML, like Gecko) Chrome/112.0.0.0 Safari/537.36" etag="K9mE55RnT89Eb8ZQjs2g" version="21.2.2" type="device">
  <diagram name="第 1 页" id="ff-1juH0qFNVM58MvgIn">
    <mxGraphModel dx="1195" dy="590" grid="1" gridSize="10" guides="1" tooltips="1" connect="1" arrows="1" fold="1" page="1" pageScale="1" pageWidth="1169" pageHeight="827" math="0" shadow="0">
      <root>
        <mxCell id="0" />
        <mxCell id="1" parent="0" />
        <mxCell id="LJK6cuish6feHZea4N2g-1" value="&lt;font style=&quot;font-size: 18px;&quot;&gt;環境圖&lt;/font&gt;" style="text;html=1;strokeColor=none;fillColor=none;align=center;verticalAlign=middle;whiteSpace=wrap;rounded=0;" vertex="1" parent="1">
          <mxGeometry x="60" y="50" width="60" height="30" as="geometry" />
        </mxCell>
        <mxCell id="LJK6cuish6feHZea4N2g-7" style="edgeStyle=orthogonalEdgeStyle;rounded=0;orthogonalLoop=1;jettySize=auto;html=1;" edge="1" parent="1" source="LJK6cuish6feHZea4N2g-2" target="LJK6cuish6feHZea4N2g-4">
          <mxGeometry relative="1" as="geometry">
            <Array as="points">
              <mxPoint x="620" y="320" />
              <mxPoint x="620" y="320" />
            </Array>
          </mxGeometry>
        </mxCell>
        <mxCell id="LJK6cuish6feHZea4N2g-9" style="edgeStyle=orthogonalEdgeStyle;rounded=0;orthogonalLoop=1;jettySize=auto;html=1;entryX=1.003;entryY=0.32;entryDx=0;entryDy=0;entryPerimeter=0;" edge="1" parent="1" source="LJK6cuish6feHZea4N2g-2" target="LJK6cuish6feHZea4N2g-3">
          <mxGeometry relative="1" as="geometry">
            <mxPoint x="200" y="330" as="targetPoint" />
            <Array as="points">
              <mxPoint x="300" y="320" />
            </Array>
          </mxGeometry>
        </mxCell>
        <mxCell id="LJK6cuish6feHZea4N2g-2" value="&lt;font style=&quot;font-size: 17px;&quot;&gt;0&lt;br&gt;&lt;br&gt;記帳趣&lt;/font&gt;" style="ellipse;whiteSpace=wrap;html=1;aspect=fixed;" vertex="1" parent="1">
          <mxGeometry x="480" y="270" width="120" height="120" as="geometry" />
        </mxCell>
        <mxCell id="LJK6cuish6feHZea4N2g-10" style="edgeStyle=orthogonalEdgeStyle;rounded=0;orthogonalLoop=1;jettySize=auto;html=1;entryX=0;entryY=0.583;entryDx=0;entryDy=0;entryPerimeter=0;" edge="1" parent="1" source="LJK6cuish6feHZea4N2g-3" target="LJK6cuish6feHZea4N2g-2">
          <mxGeometry relative="1" as="geometry">
            <mxPoint x="390" y="330" as="targetPoint" />
            <Array as="points">
              <mxPoint x="280" y="340" />
              <mxPoint x="280" y="340" />
            </Array>
          </mxGeometry>
        </mxCell>
        <mxCell id="LJK6cuish6feHZea4N2g-3" value="&lt;font style=&quot;font-size: 17px;&quot;&gt;小孩&lt;/font&gt;" style="rounded=0;whiteSpace=wrap;html=1;" vertex="1" parent="1">
          <mxGeometry x="80" y="300" width="120" height="60" as="geometry" />
        </mxCell>
        <mxCell id="LJK6cuish6feHZea4N2g-8" style="edgeStyle=orthogonalEdgeStyle;rounded=0;orthogonalLoop=1;jettySize=auto;html=1;entryX=0.999;entryY=0.588;entryDx=0;entryDy=0;entryPerimeter=0;" edge="1" parent="1" source="LJK6cuish6feHZea4N2g-4" target="LJK6cuish6feHZea4N2g-2">
          <mxGeometry relative="1" as="geometry">
            <mxPoint x="540" y="330" as="targetPoint" />
            <Array as="points">
              <mxPoint x="620" y="340" />
            </Array>
          </mxGeometry>
        </mxCell>
        <mxCell id="LJK6cuish6feHZea4N2g-4" value="&lt;font style=&quot;font-size: 17px;&quot;&gt;家長&lt;/font&gt;" style="rounded=0;whiteSpace=wrap;html=1;" vertex="1" parent="1">
          <mxGeometry x="880" y="300" width="120" height="60" as="geometry" />
        </mxCell>
        <mxCell id="LJK6cuish6feHZea4N2g-6" value="&lt;font style=&quot;font-size: 17px;&quot;&gt;註冊帳號&lt;/font&gt;" style="text;html=1;align=center;verticalAlign=middle;resizable=0;points=[];autosize=1;strokeColor=none;fillColor=none;" vertex="1" parent="1">
          <mxGeometry x="255" y="340" width="90" height="30" as="geometry" />
        </mxCell>
        <mxCell id="LJK6cuish6feHZea4N2g-13" value="&lt;span style=&quot;font-size: 17px;&quot;&gt;新增記帳資料&lt;/span&gt;" style="text;html=1;align=center;verticalAlign=middle;resizable=0;points=[];autosize=1;strokeColor=none;fillColor=none;" vertex="1" parent="1">
          <mxGeometry x="235" y="380" width="130" height="30" as="geometry" />
        </mxCell>
        <mxCell id="LJK6cuish6feHZea4N2g-14" value="&lt;font style=&quot;font-size: 17px;&quot;&gt;新增願望資料&lt;/font&gt;" style="text;html=1;align=center;verticalAlign=middle;resizable=0;points=[];autosize=1;strokeColor=none;fillColor=none;" vertex="1" parent="1">
          <mxGeometry x="235" y="460" width="130" height="30" as="geometry" />
        </mxCell>
        <mxCell id="LJK6cuish6feHZea4N2g-15" value="&lt;font style=&quot;font-size: 17px;&quot;&gt;更改服裝&lt;/font&gt;" style="text;html=1;align=center;verticalAlign=middle;resizable=0;points=[];autosize=1;strokeColor=none;fillColor=none;" vertex="1" parent="1">
          <mxGeometry x="255" y="540" width="90" height="30" as="geometry" />
        </mxCell>
        <mxCell id="LJK6cuish6feHZea4N2g-16" value="&lt;font style=&quot;font-size: 17px;&quot;&gt;修改帳號資訊&lt;/font&gt;" style="text;html=1;align=center;verticalAlign=middle;resizable=0;points=[];autosize=1;strokeColor=none;fillColor=none;" vertex="1" parent="1">
          <mxGeometry x="235" y="360" width="130" height="30" as="geometry" />
        </mxCell>
        <mxCell id="LJK6cuish6feHZea4N2g-17" value="&lt;font style=&quot;font-size: 17px;&quot;&gt;刪除願望資料&lt;/font&gt;" style="text;html=1;align=center;verticalAlign=middle;resizable=0;points=[];autosize=1;strokeColor=none;fillColor=none;" vertex="1" parent="1">
          <mxGeometry x="235" y="480" width="130" height="30" as="geometry" />
        </mxCell>
        <mxCell id="LJK6cuish6feHZea4N2g-18" value="&lt;font style=&quot;font-size: 17px;&quot;&gt;更改願望目標&lt;/font&gt;" style="text;html=1;align=center;verticalAlign=middle;resizable=0;points=[];autosize=1;strokeColor=none;fillColor=none;" vertex="1" parent="1">
          <mxGeometry x="235" y="500" width="130" height="30" as="geometry" />
        </mxCell>
        <mxCell id="LJK6cuish6feHZea4N2g-19" value="&lt;span style=&quot;font-size: 17px;&quot;&gt;刪除記帳資料&lt;/span&gt;" style="text;html=1;align=center;verticalAlign=middle;resizable=0;points=[];autosize=1;strokeColor=none;fillColor=none;" vertex="1" parent="1">
          <mxGeometry x="235" y="400" width="130" height="30" as="geometry" />
        </mxCell>
        <mxCell id="LJK6cuish6feHZea4N2g-20" value="&lt;span style=&quot;font-size: 17px;&quot;&gt;修改記帳資料&lt;/span&gt;" style="text;html=1;align=center;verticalAlign=middle;resizable=0;points=[];autosize=1;strokeColor=none;fillColor=none;" vertex="1" parent="1">
          <mxGeometry x="235" y="420" width="130" height="30" as="geometry" />
        </mxCell>
        <mxCell id="LJK6cuish6feHZea4N2g-21" value="&lt;span style=&quot;font-size: 17px;&quot;&gt;查詢記帳資料&lt;/span&gt;" style="text;html=1;align=center;verticalAlign=middle;resizable=0;points=[];autosize=1;strokeColor=none;fillColor=none;" vertex="1" parent="1">
          <mxGeometry x="235" y="440" width="130" height="30" as="geometry" />
        </mxCell>
        <mxCell id="LJK6cuish6feHZea4N2g-24" value="&lt;font style=&quot;font-size: 17px;&quot;&gt;向機器人提問&lt;/font&gt;" style="text;html=1;align=center;verticalAlign=middle;resizable=0;points=[];autosize=1;strokeColor=none;fillColor=none;" vertex="1" parent="1">
          <mxGeometry x="235" y="560" width="130" height="30" as="geometry" />
        </mxCell>
        <mxCell id="LJK6cuish6feHZea4N2g-25" value="&lt;font style=&quot;font-size: 17px;&quot;&gt;遊戲結果&lt;/font&gt;" style="text;html=1;align=center;verticalAlign=middle;resizable=0;points=[];autosize=1;strokeColor=none;fillColor=none;" vertex="1" parent="1">
          <mxGeometry x="255" y="580" width="90" height="30" as="geometry" />
        </mxCell>
        <mxCell id="LJK6cuish6feHZea4N2g-26" value="&lt;font style=&quot;font-size: 17px;&quot;&gt;成就獎勵領取&lt;/font&gt;" style="text;html=1;align=center;verticalAlign=middle;resizable=0;points=[];autosize=1;strokeColor=none;fillColor=none;" vertex="1" parent="1">
          <mxGeometry x="235" y="520" width="130" height="30" as="geometry" />
        </mxCell>
        <mxCell id="LJK6cuish6feHZea4N2g-27" value="&lt;font style=&quot;font-size: 17px;&quot;&gt;審核通過與否及資訊&lt;/font&gt;" style="text;html=1;align=center;verticalAlign=middle;resizable=0;points=[];autosize=1;strokeColor=none;fillColor=none;" vertex="1" parent="1">
          <mxGeometry x="655" y="360" width="180" height="30" as="geometry" />
        </mxCell>
        <mxCell id="LJK6cuish6feHZea4N2g-28" value="&lt;font style=&quot;font-size: 17px;&quot;&gt;新增審核密碼&lt;/font&gt;" style="text;html=1;align=center;verticalAlign=middle;resizable=0;points=[];autosize=1;strokeColor=none;fillColor=none;" vertex="1" parent="1">
          <mxGeometry x="680" y="340" width="130" height="30" as="geometry" />
        </mxCell>
        <mxCell id="LJK6cuish6feHZea4N2g-31" value="&lt;font style=&quot;font-size: 17px;&quot;&gt;待審核內容&lt;/font&gt;" style="text;html=1;align=center;verticalAlign=middle;resizable=0;points=[];autosize=1;strokeColor=none;fillColor=none;" vertex="1" parent="1">
          <mxGeometry x="690" y="290" width="110" height="30" as="geometry" />
        </mxCell>
        <mxCell id="LJK6cuish6feHZea4N2g-33" value="&lt;font style=&quot;font-size: 17px;&quot;&gt;帳號資訊&lt;/font&gt;" style="text;html=1;align=center;verticalAlign=middle;resizable=0;points=[];autosize=1;strokeColor=none;fillColor=none;" vertex="1" parent="1">
          <mxGeometry x="255" y="290" width="90" height="30" as="geometry" />
        </mxCell>
        <mxCell id="LJK6cuish6feHZea4N2g-34" value="&lt;span style=&quot;font-size: 17px;&quot;&gt;記帳記錄&lt;/span&gt;" style="text;html=1;align=center;verticalAlign=middle;resizable=0;points=[];autosize=1;strokeColor=none;fillColor=none;" vertex="1" parent="1">
          <mxGeometry x="255" y="270" width="90" height="30" as="geometry" />
        </mxCell>
        <mxCell id="LJK6cuish6feHZea4N2g-35" value="&lt;span style=&quot;font-size: 17px;&quot;&gt;願望清單&lt;/span&gt;" style="text;html=1;align=center;verticalAlign=middle;resizable=0;points=[];autosize=1;strokeColor=none;fillColor=none;" vertex="1" parent="1">
          <mxGeometry x="255" y="250" width="90" height="30" as="geometry" />
        </mxCell>
        <mxCell id="LJK6cuish6feHZea4N2g-36" value="&lt;span style=&quot;font-size: 17px;&quot;&gt;成就內容&lt;/span&gt;" style="text;html=1;align=center;verticalAlign=middle;resizable=0;points=[];autosize=1;strokeColor=none;fillColor=none;" vertex="1" parent="1">
          <mxGeometry x="255" y="230" width="90" height="30" as="geometry" />
        </mxCell>
        <mxCell id="LJK6cuish6feHZea4N2g-37" value="&lt;span style=&quot;font-size: 17px;&quot;&gt;更衣間服飾&lt;/span&gt;" style="text;html=1;align=center;verticalAlign=middle;resizable=0;points=[];autosize=1;strokeColor=none;fillColor=none;" vertex="1" parent="1">
          <mxGeometry x="245" y="210" width="110" height="30" as="geometry" />
        </mxCell>
        <mxCell id="LJK6cuish6feHZea4N2g-38" value="&lt;span style=&quot;font-size: 17px;&quot;&gt;穿戴中服飾&lt;/span&gt;" style="text;html=1;align=center;verticalAlign=middle;resizable=0;points=[];autosize=1;strokeColor=none;fillColor=none;" vertex="1" parent="1">
          <mxGeometry x="245" y="190" width="110" height="30" as="geometry" />
        </mxCell>
        <mxCell id="LJK6cuish6feHZea4N2g-39" value="&lt;font style=&quot;font-size: 17px;&quot;&gt;機器人回應&lt;/font&gt;" style="text;html=1;align=center;verticalAlign=middle;resizable=0;points=[];autosize=1;strokeColor=none;fillColor=none;" vertex="1" parent="1">
          <mxGeometry x="245" y="170" width="110" height="30" as="geometry" />
        </mxCell>
        <mxCell id="LJK6cuish6feHZea4N2g-40" value="&lt;font style=&quot;font-size: 17px;&quot;&gt;遊戲結果&lt;/font&gt;" style="text;html=1;align=center;verticalAlign=middle;resizable=0;points=[];autosize=1;strokeColor=none;fillColor=none;" vertex="1" parent="1">
          <mxGeometry x="255" y="150" width="90" height="30" as="geometry" />
        </mxCell>
        <mxCell id="LJK6cuish6feHZea4N2g-41" value="&lt;font style=&quot;font-size: 17px;&quot;&gt;存錢筒&lt;/font&gt;" style="text;html=1;align=center;verticalAlign=middle;resizable=0;points=[];autosize=1;strokeColor=none;fillColor=none;" vertex="1" parent="1">
          <mxGeometry x="265" y="130" width="70" height="30" as="geometry" />
        </mxCell>
      </root>
    </mxGraphModel>
  </diagram>
</mxfile>
